<?xml version="1.0" standalone="no"?>
<!DOCTYPE svg PUBLIC "-//W3C//DTD SVG 20010904//EN"
 "http://www.w3.org/TR/2001/REC-SVG-20010904/DTD/svg10.dtd">
<svg version="1.0" xmlns="http://www.w3.org/2000/svg"
 width="260.000000pt" height="260.000000pt" viewBox="0 0 260.000000 260.000000"
 preserveAspectRatio="xMidYMid meet">
<metadata>
Created by potrace 1.11, written by Peter Selinger 2001-2013
</metadata>
<g transform="translate(0.000000,260.000000) scale(0.100000,-0.100000)"
fill="#000000" stroke="none">
<path d="M1100 2294 c-364 -33 -619 -135 -691 -276 -18 -36 -19 -67 -19 -718
0 -549 3 -687 14 -713 16 -38 84 -104 147 -140 127 -75 395 -133 659 -144 403
-16 782 70 929 210 75 72 71 28 71 787 0 656 -1 682 -20 719 -59 117 -262 214
-532 256 -99 15 -461 28 -558 19z m525 -89 c275 -42 486 -138 509 -231 27
-108 -185 -219 -518 -271 -167 -26 -510 -23 -670 6 -259 47 -430 121 -470 205
-21 45 -13 75 32 121 91 90 333 163 632 189 88 8 386 -4 485 -19z m-1122 -419
c82 -61 231 -114 417 -148 161 -29 571 -32 735 -4 188 31 362 91 441 151 18
14 36 25 39 25 4 0 5 -72 3 -159 -3 -143 -5 -163 -24 -188 -105 -142 -528
-236 -955 -212 -351 20 -636 118 -685 236 -14 32 -21 323 -8 323 3 0 20 -11
37 -24z m77 -481 c136 -69 310 -108 559 -126 394 -28 792 45 969 178 l32 24 0
-153 c0 -183 -7 -204 -90 -258 -95 -63 -202 -99 -410 -137 -120 -22 -531 -25
-655 -5 -232 38 -437 117 -492 189 -28 36 -28 38 -31 201 l-3 165 33 -25 c18
-14 58 -38 88 -53z m-86 -384 c47 -52 239 -122 431 -157 139 -26 603 -27 745
-2 180 32 352 95 448 165 l23 16 -3 -166 -3 -166 -40 -41 c-116 -120 -425
-194 -800 -194 -328 1 -600 57 -745 155 -82 56 -85 63 -88 247 -2 93 1 162 6
162 5 0 17 -9 26 -19z"/>
</g>
</svg>
